<svg id="Livello_1" data-name="Livello 1" xmlns="http://www.w3.org/2000/svg" viewBox="0 0 1724.16 1587.01"><defs><style>.cls-1{fill:#fff;}.cls-2{fill:#1d1d1b;}</style></defs><title>logo - large</title><path d="M137.92,206.5H1862.08v1587H137.92Zm45.06,1337H1816.87V456.25H183Zm1524.5,113.85h0c0,13.65-.31,27.31.09,41s8.92,22.12,22.43,22.61c12.22.45,24.47.45,36.68,0,13.23-.49,22.32-9.26,22.57-22.71q.72-40.4,0-80.82c-.23-13.43-9.08-21.85-22.69-22.43-11.85-.51-23.75-.52-35.59-.08-15.53.58-23.29,8.94-23.51,24.77C1707.34,1632.19,1707.48,1644.77,1707.48,1657.34ZM933,351.21V313.49c0-.72,0-1.44,0-2.16-.69-14-9.1-22.9-23-23.41-11.85-.44-23.75-.42-35.6-.05-13.74.43-22.57,8.51-22.83,22.17q-.81,40.95,0,81.91c.24,13.61,8.87,21.8,22.63,22.41,11.85.53,23.76.54,35.6,0,14.59-.68,22.89-9.6,23.18-24.34C933.24,377.08,933,364.14,933,351.21ZM628.33,1657v38.81c0,.36,0,.72,0,1.07.5,14.69,8.9,23.59,23.41,24.06,11.5.36,23,.33,34.53,0,15.17-.41,23.76-9.22,23.88-24.61q.29-38.8,0-77.61c-.12-14.82-8.39-23.32-23.34-23.91-11.49-.45-23-.43-34.53,0-15.63.55-23.69,9-23.91,24.47C628.19,1631.88,628.33,1644.45,628.33,1657ZM1796.09,350.87v-37.7c0-.72,0-1.44,0-2.15-.85-14.22-9-22.66-23.19-23.14-11.49-.39-23-.34-34.51,0-14.55.38-23.22,8.13-23.53,22.55-.57,26.92-.52,53.87,0,80.79.26,14.57,8.49,22.56,23,23.2,11.48.5,23,.5,34.5,0,15.45-.65,23.49-9.14,23.81-24.76C1796.29,376.73,1796.08,363.8,1796.09,350.87Zm-1079.21.65c0-13.29.16-26.59,0-39.88-.23-14.69-8.67-23.33-23.47-23.78-11.5-.36-23-.34-34.52,0-13.89.41-22.76,8.07-23.09,21.87q-1,41.46,0,83c.33,13.25,8.94,21,22.23,21.65,11.48.57,23,.52,34.52.11,16.19-.56,24.2-9.06,24.35-25.21C717,376.66,716.89,364.09,716.88,351.52ZM1573.35,1657c0-13,.19-25.9-.06-38.85-.26-13.79-8.22-22.48-21.85-23.12-12.58-.59-25.22-.56-37.8,0-12.74.55-21.26,8.42-21.53,21.06q-.88,41.54,0,83.1c.29,13.57,9.38,21.46,23.23,21.83,11.51.31,23.06.35,34.57,0,14.58-.46,23.17-9.37,23.41-24C1573.53,1683.61,1573.36,1670.3,1573.35,1657Zm-647.51,1.2h0c0-13.31.41-26.63-.11-39.92-.6-15.26-8.57-23-23.85-23.45-11.51-.36-23.06-.41-34.56.08-14.63.62-22.68,8.8-22.82,23.22q-.37,39.39,0,78.78c.13,15.34,8.73,23.74,24.31,24.12,10.44.26,20.89.19,31.33,0,16.87-.25,25.17-8.2,25.69-25.09C926.15,1683.37,925.84,1670.77,925.84,1658.18Zm-431.67.32c0-13.32.19-26.63-.05-39.94-.26-14.65-8-23-22.39-23.61-12.22-.54-24.5-.51-36.72,0-13.09.54-21.42,7.66-21.78,20.72q-1.17,42,0,84.13c.4,13.53,9.12,20.75,22.58,21.17,11.51.35,23.05.34,34.57,0,14.82-.41,23.38-8.94,23.7-23.64C494.39,1684.4,494.17,1671.45,494.17,1658.5Zm654.3-1306.74v-37.7c0-.72,0-1.44,0-2.16-.94-15.74-8.89-23.75-24.43-24.08-11.49-.24-23-.35-34.5.12-13.61.55-22.1,9-22.27,22.65q-.51,40.38,0,80.79c.16,13.69,8.32,22.1,22,22.9,11.11.64,22.28.49,33.42.24,17.55-.4,25.37-8.37,25.73-26.13C1148.67,376.18,1148.47,364,1148.47,351.76Zm-863.3-.67H285c0-13.64.47-27.31-.13-40.93-.63-14.13-8.63-21.81-22.56-22.27-11.85-.39-23.73-.41-35.58,0-14.21.51-22.57,8.93-22.74,23.32q-.47,39.86,0,79.73c.17,14.38,8.28,22.65,22.73,23.39,11.11.57,22.29.46,33.42.16,16.54-.46,24.42-8.18,24.91-24.63C285.48,377,285.17,364,285.17,351.09Zm215.66-.38h0c0-13.68.31-27.37-.09-41-.37-12.55-8.44-21-21-21.61-12.94-.6-26-.59-38.9,0-12.08.58-20.41,8.5-20.68,20.75q-.9,42.09,0,84.21c.26,12.68,8.61,20.5,21.5,21.17a353.24,353.24,0,0,0,37.81,0c13.28-.73,21-9.15,21.34-22.44C501.09,378.07,500.83,364.38,500.83,350.71Zm863.2,1.06c0-13.33.22-26.65-.06-40-.33-15.73-8.41-23.66-24.29-24-11.17-.23-22.36-.31-33.52.08-14.39.5-22.82,8.81-23,23.12q-.45,40,0,79.92c.15,14.43,8.19,22.72,22.74,23.41,11.86.56,23.8.55,35.66,0,14.53-.68,22-8.81,22.38-23.69C1364.25,377.69,1364,364.73,1364,351.77ZM278.31,1658.26h-.07c0-13.67.34-27.35-.09-41-.43-13.49-8.13-21.58-21.47-22.23-12.57-.62-25.22-.6-37.79-.07-13.56.58-21.33,8.35-21.54,22q-.61,40.45,0,80.93c.21,15,8.71,22.78,24,23.13q16.2.36,32.41,0c16.14-.37,24.25-8.59,24.58-25C278.51,1683.45,278.31,1670.85,278.31,1658.26Zm863-.31h.06v-37.74c0-.72,0-1.44,0-2.16-.66-14.64-8.13-22.57-22.84-23.16-11.85-.47-23.76-.48-35.61,0-14.15.61-22.25,8.54-22.43,22.37q-.54,40.43,0,80.87c.2,14.18,8.84,22.37,23.29,22.81,11.5.34,23,.35,34.54,0,14.35-.47,22.54-8.68,23-23.09C1141.61,1684.56,1141.31,1671.25,1141.31,1658ZM1579.94,351c0-13.31.22-26.63-.06-39.93-.3-14.23-8.64-22.69-23-23.18-11.51-.38-23.06-.37-34.57,0-14.54.45-23,8.45-23.24,22.86q-.64,40.45,0,80.94c.23,13.91,8.36,21.92,22.38,22.63,11.85.59,23.78.59,35.64,0,14.82-.7,22.6-9.33,22.8-24.5C1580.1,376.9,1580,364,1579.94,351ZM1357.26,1658.17h0v-38.82q0-1.08-.06-2.16c-.66-13.29-8.17-21.52-21.54-22.16-12.57-.6-25.2-.59-37.77,0-12.93.58-21.26,8.25-21.54,21q-.9,41.49,0,83c.27,13.26,8.9,21.34,22,21.85,12.21.49,24.48.49,36.69,0,13.55-.52,21.83-9.16,22.16-22.82C1357.5,1684.78,1357.26,1671.47,1357.26,1658.17Z" transform="translate(-137.92 -206.5)"/><path class="cls-1" d="M183,1543.49V456.25H1816.87V1543.49Z" transform="translate(-137.92 -206.5)"/><path class="cls-1" d="M1707.48,1657.34c0-12.57-.14-25.15,0-37.72.22-15.83,8-24.19,23.51-24.77,11.84-.44,23.74-.43,35.59.08,13.61.58,22.46,9,22.69,22.43q.69,40.41,0,80.82c-.25,13.45-9.34,22.22-22.57,22.71-12.21.46-24.46.46-36.68,0-13.51-.49-22-9.08-22.43-22.61s-.09-27.3-.09-41Z" transform="translate(-137.92 -206.5)"/><path class="cls-1" d="M933,351.21c0,12.93.2,25.87-.06,38.8-.29,14.74-8.59,23.66-23.18,24.34-11.84.55-23.75.54-35.6,0-13.76-.61-22.39-8.8-22.63-22.41q-.75-40.95,0-81.91c.26-13.66,9.09-21.74,22.83-22.17,11.85-.37,23.75-.39,35.6.05,13.9.51,22.31,9.4,23,23.41,0,.72,0,1.44,0,2.16Z" transform="translate(-137.92 -206.5)"/><path class="cls-1" d="M628.33,1657c0-12.58-.14-25.15,0-37.73.22-15.51,8.28-23.92,23.91-24.47,11.5-.41,23-.43,34.53,0,15,.59,23.22,9.09,23.34,23.91q.32,38.79,0,77.61c-.12,15.39-8.71,24.2-23.88,24.61-11.5.32-23,.35-34.53,0-14.51-.47-22.91-9.37-23.41-24.06,0-.35,0-.71,0-1.07Z" transform="translate(-137.92 -206.5)"/><path class="cls-1" d="M1796.08,350.87c0,12.93.21,25.86,0,38.78-.32,15.62-8.36,24.11-23.81,24.76-11.48.48-23,.48-34.5,0-14.47-.64-22.7-8.63-23-23.2-.47-26.92-.52-53.87,0-80.79.31-14.42,9-22.17,23.53-22.55,11.5-.31,23-.36,34.51,0,14.17.48,22.34,8.92,23.19,23.14,0,.71,0,1.43,0,2.15Q1796.09,332,1796.08,350.87Z" transform="translate(-137.92 -206.5)"/><path class="cls-1" d="M716.89,351.52c0,12.57.09,25.14,0,37.72-.15,16.15-8.16,24.65-24.35,25.21-11.5.41-23,.46-34.52-.11-13.29-.65-21.9-8.4-22.23-21.65q-1-41.46,0-83c.33-13.8,9.2-21.46,23.09-21.87,11.5-.34,23-.36,34.52,0,14.8.45,23.24,9.09,23.47,23.78C717,324.93,716.88,338.23,716.89,351.52Z" transform="translate(-137.92 -206.5)"/><path class="cls-1" d="M1573.35,1657c0,13.32.18,26.63,0,39.94-.24,14.68-8.83,23.59-23.41,24-11.51.36-23.06.32-34.57,0-13.85-.37-22.94-8.26-23.23-21.83q-.9-41.54,0-83.1c.27-12.64,8.79-20.51,21.53-21.06,12.58-.54,25.22-.57,37.8,0,13.63.64,21.59,9.33,21.85,23.12C1573.54,1631.08,1573.35,1644,1573.35,1657Z" transform="translate(-137.92 -206.5)"/><path class="cls-1" d="M925.84,1658.18c0,12.59.31,25.19-.07,37.77-.52,16.89-8.82,24.84-25.69,25.09-10.44.16-20.89.23-31.33,0-15.58-.38-24.18-8.78-24.31-24.12q-.33-39.39,0-78.78c.14-14.42,8.19-22.6,22.82-23.22,11.5-.49,23.05-.44,34.56-.08,15.28.48,23.25,8.19,23.85,23.45.52,13.29.11,26.61.11,39.92Z" transform="translate(-137.92 -206.5)"/><path class="cls-1" d="M494.17,1658.5c0,13,.22,25.9-.06,38.85-.32,14.7-8.88,23.23-23.7,23.64-11.52.31-23.06.32-34.57,0-13.46-.42-22.18-7.64-22.58-21.17q-1.25-42,0-84.13c.36-13.06,8.69-20.18,21.78-20.72,12.22-.5,24.5-.53,36.72,0,14.43.63,22.13,9,22.39,23.61C494.36,1631.87,494.17,1645.18,494.17,1658.5Z" transform="translate(-137.92 -206.5)"/><path class="cls-1" d="M1148.47,351.76c0,12.21.2,24.42,0,36.63-.36,17.76-8.18,25.73-25.73,26.13-11.14.25-22.31.4-33.42-.24-13.73-.8-21.89-9.21-22-22.9q-.48-40.39,0-80.79c.17-13.64,8.66-22.1,22.27-22.65,11.48-.47,23-.36,34.5-.12,15.54.33,23.49,8.34,24.43,24.08,0,.72,0,1.44,0,2.16Z" transform="translate(-137.92 -206.5)"/><path class="cls-1" d="M285.17,351.09c0,12.93.31,25.87-.08,38.79-.49,16.45-8.37,24.17-24.91,24.63-11.13.3-22.31.41-33.42-.16-14.45-.74-22.56-9-22.73-23.39q-.48-39.85,0-79.73c.17-14.39,8.53-22.81,22.74-23.32,11.85-.43,23.73-.41,35.58,0,13.93.46,21.93,8.14,22.56,22.27.6,13.62.13,27.29.13,40.93Z" transform="translate(-137.92 -206.5)"/><path class="cls-1" d="M500.83,350.71c0,13.67.26,27.36-.08,41-.32,13.29-8.06,21.71-21.34,22.44a353.24,353.24,0,0,1-37.81,0c-12.89-.67-21.24-8.49-21.5-21.17q-.87-42.09,0-84.21c.27-12.25,8.6-20.17,20.68-20.75,12.95-.61,26-.62,38.9,0,12.54.57,20.61,9.06,21,21.61.4,13.67.09,27.36.09,41Z" transform="translate(-137.92 -206.5)"/><path class="cls-1" d="M1364,351.77c0,13,.23,25.92-.07,38.88-.33,14.88-7.85,23-22.38,23.69-11.86.55-23.8.56-35.66,0-14.55-.69-22.59-9-22.74-23.41q-.43-40,0-79.92c.16-14.31,8.59-22.62,23-23.12,11.16-.39,22.35-.31,33.52-.08,15.88.33,24,8.26,24.29,24C1364.25,325.12,1364,338.44,1364,351.77Z" transform="translate(-137.92 -206.5)"/><path class="cls-1" d="M278.31,1658.26c0,12.59.2,25.19-.05,37.77-.33,16.39-8.44,24.61-24.58,25q-16.19.39-32.41,0c-15.25-.35-23.75-8.15-24-23.13q-.59-40.46,0-80.93c.21-13.65,8-21.42,21.54-22,12.57-.53,25.22-.55,37.79.07,13.34.65,21,8.74,21.47,22.23.43,13.65.09,27.33.09,41Z" transform="translate(-137.92 -206.5)"/><path class="cls-1" d="M1141.31,1658c0,13.3.3,26.61-.08,39.9-.41,14.41-8.6,22.62-23,23.09-11.51.38-23,.37-34.54,0-14.45-.44-23.09-8.63-23.29-22.81q-.54-40.42,0-80.87c.18-13.83,8.28-21.76,22.43-22.37,11.85-.51,23.76-.5,35.61,0,14.71.59,22.18,8.52,22.84,23.16,0,.72,0,1.44,0,2.16V1658Z" transform="translate(-137.92 -206.5)"/><path class="cls-1" d="M1580,351c0,13,.15,25.91,0,38.86-.2,15.17-8,23.8-22.8,24.5-11.86.55-23.79.55-35.64,0-14-.71-22.15-8.72-22.38-22.63q-.64-40.47,0-80.94c.22-14.41,8.7-22.41,23.24-22.86,11.51-.37,23.06-.38,34.57,0,14.33.49,22.67,8.95,23,23.18C1580.16,324.36,1579.94,337.68,1580,351Z" transform="translate(-137.92 -206.5)"/><path class="cls-1" d="M1357.26,1658.17c0,13.3.24,26.61-.07,39.9-.33,13.66-8.61,22.3-22.16,22.82-12.21.47-24.48.47-36.69,0-13.09-.51-21.72-8.59-22-21.85q-.84-41.49,0-83c.28-12.74,8.61-20.41,21.54-21,12.57-.57,25.2-.58,37.77,0,13.37.64,20.88,8.87,21.54,22.16q.06,1.08.06,2.16v38.82Z" transform="translate(-137.92 -206.5)"/><path class="cls-2" d="M239.4,866.14C261.79,878,296.31,890,333.55,890c36.36,0,55.95-14,55.95-36.19,0-19.58-16.34-31.72-60.62-44.59C269.27,792,226.1,762.94,226.1,707.5c0-58.57,52.36-101.88,134.47-101.88,43.78,0,73.83,8.11,97.08,18.58l-19,62.69c-14.62-6.5-42.17-17.5-79.51-17.5-34.87,0-51.5,14.82-51.5,31.85,0,21.81,21.5,30.87,67.72,45.61,64.65,20.79,96.07,50.71,96.07,102.45,0,54.38-42.28,105.32-144.07,105.32-41.86,0-84.09-11.57-105.38-23.42Z" transform="translate(-137.92 -206.5)"/><path class="cls-2" d="M747.5,807.94H607.75v76.42h156v64.26H528v-337H756v64.27H607.75v67.78H747.5Z" transform="translate(-137.92 -206.5)"/><path class="cls-2" d="M912.41,948.62l-119-337h87.11l46.4,141.74c13.76,41.35,25.11,78.48,34.82,121.37h1c9.92-40.63,22.59-80.55,35.88-119.3l49.37-143.81H1132l-125.41,337Z" transform="translate(-137.92 -206.5)"/><path class="cls-2" d="M1390.49,807.94H1250.74v76.42h156v64.26H1171v-337h228v64.27H1250.74v67.78h139.75Z" transform="translate(-137.92 -206.5)"/><path class="cls-2" d="M1461,948.62v-337h98.31l76,120.76c23.51,38.45,44.3,80.33,61.41,121.37l1.39-.22c-5.47-47.67-6-88.46-6-135.73V611.62h74.08v337h-86.38l-79.29-130.31c-23-39-47.4-82.38-66.58-125l-1.89.21c2.5,48.25,3,94.5,3,145.29V948.62Z" transform="translate(-137.92 -206.5)"/><path class="cls-2" d="M548.14,1168.61c-3.25-50.5-7.25-112.5-6.88-149.37h-1.37c-12.13,36.62-26,75.75-45.38,125.87l-70.75,183.25H407.14l-66.38-179.12c-19.25-52.5-33.5-92.88-43.62-130h-1.25c-.88,39.62-3.25,98.25-7.25,154.12l-10.63,155H254.64l24.62-337h27.25L379,1185.61c15.88,42.88,27.75,76.75,37.25,109.25h1.13C426,1263.74,438,1231.11,455.26,1186l75.13-194.63h28.5l22.62,337H558Z" transform="translate(-137.92 -206.5)"/><path class="cls-2" d="M928.89,1156.49c0,118.75-72.75,177.37-150.88,177.37-82.87,0-147-65.25-147-170.62,0-110.5,66.88-177.38,151.13-177.38C867.14,985.86,928.89,1052.11,928.89,1156.49Zm-273.13,6c0,75.87,44.13,151.5,123.75,151.5,80,0,124.63-72.63,124.63-156,0-71-38.88-152.25-123.63-152.25C695.39,1005.74,655.76,1083.74,655.76,1162.49Z" transform="translate(-137.92 -206.5)"/><path class="cls-2" d="M1063.63,1328.36l-111.75-337h25l59.5,180.63c16.13,48.75,30,91.62,39.5,129.12h1.25c10-38,25.63-81.87,43-129l65.75-180.75h25.25l-124.75,337Z" transform="translate(-137.92 -206.5)"/><path class="cls-2" d="M1270.75,991.36v337H1247v-337Z" transform="translate(-137.92 -206.5)"/><path class="cls-2" d="M1511,1160.86H1376.25v147.38H1527v20.12H1352.5v-337H1519v20.13H1376.25v129.25H1511Z" transform="translate(-137.92 -206.5)"/><path class="cls-2" d="M1574.87,1291.11c19,13,45.37,22.25,73.62,22.25,50.38,0,81.25-28.62,81.25-70.12,0-37.75-19.62-60-68.25-78.75-54.25-19.25-86.75-47.13-86.75-93,0-49.38,40.75-85.38,98-85.38,31.63,0,55.63,8.13,67.13,15.88l-9.25,20c-9.13-6.38-30.63-16-59.5-16-54.38,0-72.88,34.87-72.88,61.37,0,37.38,21.63,56.5,69.88,75.38,55.62,22.5,85.12,47.75,85.12,98.25,0,48.87-35,92.62-106.87,92.62-29.13,0-63-9.5-80.5-22.62Z" transform="translate(-137.92 -206.5)"/></svg>